# Blender v2.93.2 OBJ File: ''
# www.blender.org
mtllib cube.mtl
o Cube
v 0.122121 0.095617 -0.212626
v 0.067022 -0.185815 -0.173916
v 0.228330 0.113125 0.065833
v 0.173231 -0.168308 0.104543
v -0.173231 0.168308 -0.104543
v -0.228330 -0.113125 -0.065833
v -0.067022 0.185815 0.173916
v -0.122121 -0.095617 0.212626
vt 0.625000 0.500000
vt 0.875000 0.500000
vt 0.875000 0.750000
vt 0.625000 0.750000
vt 0.375000 0.750000
vt 0.625000 1.000000
vt 0.375000 1.000000
vt 0.375000 0.000000
vt 0.625000 0.000000
vt 0.625000 0.250000
vt 0.375000 0.250000
vt 0.125000 0.500000
vt 0.375000 0.500000
vt 0.125000 0.750000
vn 0.1904 0.9725 -0.1338
vn 0.3558 0.0586 0.9327
vn -0.9150 0.2252 0.3348
vn -0.1904 -0.9725 0.1338
vn 0.9150 -0.2252 -0.3348
vn -0.3558 -0.0586 -0.9327
usemtl Material
s off
f 1/1/1 5/2/1 7/3/1 3/4/1
f 4/5/2 3/4/2 7/6/2 8/7/2
f 8/8/3 7/9/3 5/10/3 6/11/3
f 6/12/4 2/13/4 4/5/4 8/14/4
f 2/13/5 1/1/5 3/4/5 4/5/5
f 6/11/6 5/10/6 1/1/6 2/13/6
